<svg width="24" height="24" viewBox="0 0 24 24" fill="none" xmlns="http://www.w3.org/2000/svg">
<path d="M12 12.7494C11.0975 12.7494 10.3302 12.4334 9.698 11.8014C9.066 11.1693 8.75 10.4019 8.75 9.49944C8.75 8.59694 9.066 7.8296 9.698 7.19744C10.3302 6.56544 11.0975 6.24944 12 6.24944C12.9025 6.24944 13.6698 6.56544 14.302 7.19744C14.934 7.8296 15.25 8.59694 15.25 9.49944C15.25 10.4019 14.934 11.1693 14.302 11.8014C13.6698 12.4334 12.9025 12.7494 12 12.7494ZM12 11.2494C12.4808 11.2494 12.8927 11.0779 13.2355 10.7349C13.5785 10.3921 13.75 9.98027 13.75 9.49944C13.75 9.0186 13.5785 8.60677 13.2355 8.26394C12.8927 7.92094 12.4808 7.74944 12 7.74944C11.5192 7.74944 11.1073 7.92094 10.7645 8.26394C10.4215 8.60677 10.25 9.0186 10.25 9.49944C10.25 9.98027 10.4215 10.3921 10.7645 10.7349C11.1073 11.0779 11.5192 11.2494 12 11.2494ZM12 21.9129L3.5 16.7207V7.27819L12 2.08594L20.5 7.27819V16.7207L12 21.9129ZM12 20.1744L15.9155 17.7647C15.3167 17.4327 14.6856 17.1805 14.0223 17.0082C13.3588 16.8357 12.6847 16.7494 12 16.7494C11.3153 16.7494 10.6412 16.8357 9.97775 17.0082C9.31442 17.1805 8.68333 17.4327 8.0845 17.7647L12 20.1744ZM6.6405 16.8782C7.44167 16.3565 8.29642 15.9546 9.20475 15.6724C10.1131 15.3904 11.0448 15.2494 12 15.2494C12.9552 15.2494 13.8869 15.3904 14.7952 15.6724C15.7036 15.9546 16.5583 16.3565 17.3595 16.8782L19 15.8994V8.12444L12 3.84944L5 8.12444V15.8994L6.6405 16.8782Z" fill="white"/>
</svg>
